:version 1.10
:name ASF
:units
  mass 1
  length 1
  angle deg
:documentation
  ASF file generated by Kaydara
:root
  axis xyz
  order  tx ty tz rx ry rz
  position 0 0 0
  orientation 0 0 0
:bonedata
  begin
    id 1
    name lfemurDummy
    direction 0.61522 -0.761478 0.204097
    length 5.68318
    axis 0 -0 0 xyz
  end
  begin
    id 2
    name lfemur
    direction 0.34202 -0.939693 -5.84747e-008
    length 16.9147
    axis 0 -0 20 xyz
    dof rx ry rz
    limits( -inf , inf )
( -inf , inf )
( -inf , inf )

  end
  begin
    id 3
    name ltibia
    direction 0.34202 -0.939693 1.20839e-009
    length 18.0532
    axis 0 -0 20 xyz
    dof rz ry rx
    limits( -inf , inf )
( -inf , inf )
( -inf , inf )

  end
  begin
    id 4
    name lfoot
    direction 0.0841971 -0.23133 0.969225
    length 5.23822
    axis -90 7.62852e-016 20 xyz
    dof ry rx rz
    limits( -inf , inf )
( -inf , inf )
( -inf , inf )

  end
  begin
    id 5
    name ltoes
    direction 0 0 0
    length 0
    axis 0 0 0 xyz
    dof rz ry rx
    limits( -inf , inf )
( -inf , inf )
( -inf , inf )

  end
  begin
    id 6
    name rfemurDummy
    direction -0.625247 -0.75382 0.202044
    length 5.74091
    axis 0 -0 0 xyz
  end
  begin
    id 7
    name rfemur
    direction -0.34202 -0.939693 -1.47013e-008
    length 16.4922
    axis 0 -0 -20 xyz
    dof rx ry rz
    limits( -inf , inf )
( -inf , inf )
( -inf , inf )

  end
  begin
    id 8
    name rtibia
    direction -0.34202 -0.939693 -7.74345e-010
    length 18.2421
    axis 0 -0 -20 xyz
    dof rz ry rx
    limits( -inf , inf )
( -inf , inf )
( -inf , inf )

  end
  begin
    id 9
    name rfoot
    direction -0.124331 -0.341598 0.931586
    length 5.45787
    axis -90 -7.62852e-016 -20 xyz
    dof ry rx rz
    limits( -inf , inf )
( -inf , inf )
( -inf , inf )

  end
  begin
    id 10
    name rtoes
    direction 0 0 0
    length 0
    axis 0 0 0 xyz
    dof rz ry rx
    limits( -inf , inf )
( -inf , inf )
( -inf , inf )

  end
  begin
    id 11
    name lowerbackDummy
    direction 0 0 0
    length 0
    axis 0 -0 0 xyz
  end
  begin
    id 12
    name lowerback
    direction -0.0218484 0.994884 -0.0986304
    length 4.45607
    axis 0 -0 0 xyz
    dof rx ry rz
    limits( -inf , inf )
( -inf , inf )
( -inf , inf )

  end
  begin
    id 13
    name upperback
    direction -0.00973057 0.999717 -0.0217111
    length 4.47449
    axis 0 -0 0 xyz
    dof rx ry rz
    limits( -inf , inf )
( -inf , inf )
( -inf , inf )

  end
  begin
    id 14
    name thorax
    direction -0.000928171 0.999699 0.0245198
    length 4.50973
    axis 0 -0 0 xyz
    dof rx ry rz
    limits( -inf , inf )
( -inf , inf )
( -inf , inf )

  end
  begin
    id 15
    name rclavicle
    direction -0.9009 0.425937 -0.0834055
    length 7.28587
    axis 0 -0 0 xyz
    dof rx ry rz
    limits( -inf , inf )
( -inf , inf )
( -inf , inf )

  end
  begin
    id 16
    name rhumerus
    direction -1 -2.23604e-007 -1.42637e-007
    length 13.5704
    axis 180 30 90 xyz
    dof rx ry rz
    limits( -inf , inf )
( -inf , inf )
( -inf , inf )

  end
  begin
    id 17
    name rradius
    direction -1 5.68281e-008 -4.4952e-007
    length 8.06782
    axis 180 30 90 xyz
    dof rz ry rx
    limits( -inf , inf )
( -inf , inf )
( -inf , inf )

  end
  begin
    id 18
    name rwrist
    direction -1 1.51393e-007 1.38143e-007
    length 4.03391
    axis -90 -90 0 xyz
    dof rz rx ry
    limits( -inf , inf )
( -inf , inf )
( -inf , inf )

  end
  begin
    id 19
    name rthumb
    direction 0 0 0
    length 0
    axis 0 0 0 xyz
    dof ry rx rz
    limits( -inf , inf )
( -inf , inf )
( -inf , inf )

  end
  begin
    id 20
    name rhand
    direction -1 -3.34077e-007 -5.59631e-007
    length 1.29744
    axis -90 -90 0 xyz
    dof ry rx rz
    limits( -inf , inf )
( -inf , inf )
( -inf , inf )

  end
  begin
    id 21
    name rfingers
    direction 0 0 0
    length 0
    axis 0 0 0 xyz
    dof rz ry rx
    limits( -inf , inf )
( -inf , inf )
( -inf , inf )

  end
  begin
    id 22
    name lclavicle
    direction 0.940017 0.332249 -0.0773232
    length 8.29589
    axis 0 -0 0 xyz
    dof rx ry rz
    limits( -inf , inf )
( -inf , inf )
( -inf , inf )

  end
  begin
    id 23
    name lhumerus
    direction 1 7.41158e-008 -1.44768e-008
    length 12.0042
    axis 180 -30 -90 xyz
    dof rx ry rz
    limits( -inf , inf )
( -inf , inf )
( -inf , inf )

  end
  begin
    id 24
    name lradius
    direction 1 -1.32972e-007 3.10821e-007
    length 8.1902
    axis 180 -30 -90 xyz
    dof rz ry rx
    limits( -inf , inf )
( -inf , inf )
( -inf , inf )

  end
  begin
    id 25
    name lwrist
    direction 1 3.08957e-007 4.01394e-007
    length 4.09509
    axis -90 90 0 xyz
    dof rz rx ry
    limits( -inf , inf )
( -inf , inf )
( -inf , inf )

  end
  begin
    id 26
    name lthumb
    direction 0 0 0
    length 0
    axis 0 0 0 xyz
    dof ry rx rz
    limits( -inf , inf )
( -inf , inf )
( -inf , inf )

  end
  begin
    id 27
    name lhand
    direction 1 -1.64125e-007 -6.99514e-007
    length 1.37229
    axis -90 90 0 xyz
    dof ry rx rz
    limits( -inf , inf )
( -inf , inf )
( -inf , inf )

  end
  begin
    id 28
    name lfingers
    direction 0 0 0
    length 0
    axis 0 0 0 xyz
    dof rz ry rx
    limits( -inf , inf )
( -inf , inf )
( -inf , inf )

  end
  begin
    id 29
    name lowerneck
    direction -0.030798 0.998024 0.0547665
    length 3.93918
    axis 0 -0 0 xyz
    dof rx ry rz
    limits( -inf , inf )
( -inf , inf )
( -inf , inf )

  end
  begin
    id 30
    name upperneck
    direction 0.0531588 0.996611 -0.0627736
    length 3.95491
    axis 0 -0 0 xyz
    dof rx ry rz
    limits( -inf , inf )
( -inf , inf )
( -inf , inf )

  end
  begin
    id 31
    name head
    direction 0 0 0
    length 0
    axis 0 0 0 xyz
    dof rx ry rz
    limits( -inf , inf )
( -inf , inf )
( -inf , inf )

  end
:hierarchy
  begin
    root lfemurDummy rfemurDummy lowerbackDummy
    lfemurDummy lfemur
    lfemur ltibia
    ltibia lfoot
    lfoot ltoes
    rfemurDummy rfemur
    rfemur rtibia
    rtibia rfoot
    rfoot rtoes
    lowerbackDummy lowerback
    lowerback upperback
    upperback thorax
    thorax rclavicle lclavicle lowerneck
    rclavicle rhumerus
    rhumerus rradius
    rradius rwrist
    rwrist rthumb rhand
    rhand rfingers
    lclavicle lhumerus
    lhumerus lradius
    lradius lwrist
    lwrist lthumb lhand
    lhand lfingers
    lowerneck upperneck
    upperneck head
  end

:SAMPLES-PER-SECOND 30
:FULLY-SPECIFIED
:DEGREES
38
root  1.286066705 34.58933192 -1.540044443 19.36399841 -78.0759964 -44.36199951
lowerback  0.6030009985 6.270760059 1.625880003
upperback  -0.148544997 8.315119743 -3.903189898
thorax  0.3245210052 4.148389816 -4.892620087
lowerneck  -11.00220013 7.433420181 -6.252160072
upperneck  17.90229988 9.214659691 11.64540005
head  6.34017992 5.030049801 5.518159866
lclavicle  0 -9.442270133e-015 7.951389973e-016
lhumerus  2.008260012 -20.17020035 75.18080139
lradius  2.564524995e-031 -2.427355678e-031 136.5740051
lwrist  0 -0 11.80809975
lhand  -1.496451383e-031 -27.76390076 20.11240005
lfingers  90 7.125020027 -90
lthumb  89.89689403 5.08795885 91.16245106
rclavicle  0 -9.442270133e-015 7.951389973e-016
rhumerus  -12.86240005 24.88139915 -92.38069916
rradius  -1.558846398e-031 3.168413159e-031 116.1969986
rwrist  1.059337512e-030 -3.531125038e-031 -3.02624011
rhand  -7.920061211e-032 -33.2840004 9.303460121
rfingers  -90 -7.125020027 -90
rthumb  -92.93752616 -24.25625642 -97.11982154
rfemur  12.08860016 10.10050011 15.33040047
rtibia  -0 0 69.26139832
rfoot  -9.202668022e-032 -16.4095993 -5.772880077
rtoes  5.373923086 19.29304026 -105.8922705
lfemur  -14.18620014 -10.36559963 17.05780029
ltibia  -0 0 74.14810181
lfoot  -0 1.934759974 -17.53700066
ltoes  -4.250644065 -19.5611806 -102.515957
39
root  1.170302188 34.55066531 -1.524059979 19.76300049 -77.60500336 -45.29100037
lowerback  0.7475209832 6.227940083 1.81043005
upperback  -0.08596719801 8.260829926 -3.956880093
thorax  0.3374170065 4.123290062 -5.061979771
lowerneck  -10.86670017 7.525829792 -6.205500126
upperneck  17.51300049 9.382780075 11.47980022
head  6.189849854 5.100520134 5.43859005
lclavicle  0 -9.442270133e-015 7.951389973e-016
lhumerus  2.134759903 -20.1840992 75.49009705
lradius  2.570659288e-031 -2.420858291e-031 136.7189941
lwrist  -7.062250077e-031 1.765562519e-031 11.74849987
lhand  -1.496451383e-031 -27.76390076 20.11240005
lfingers  90 7.125020027 -90
lthumb  89.89689403 5.08795885 91.16245106
rclavicle  0 -9.442270133e-015 7.951389973e-016
rhumerus  -11.87979984 24.81040001 -91.0786972
rradius  -1.64741455e-031 3.12327862e-031 117.8099976
rwrist  7.062250077e-031 -0 -3.238529921
rhand  -7.920061211e-032 -33.2840004 9.303460121
rfingers  -90 -7.125020027 -90
rthumb  -92.93752616 -24.25625642 -97.11982154
rfemur  11.74590015 9.718079567 15.92430019
rtibia  -0 0 70.21430206
rfoot  -4.597739374e-032 -16.2567997 -5.64496994
rtoes  5.373923086 19.29304026 -105.8922705
lfemur  -14.39410019 -9.80053997 17.28479958
ltibia  -0 0 73.7059021
lfoot  -0 0.4564610124 -18.32150078
ltoes  -4.250644065 -19.5611806 -102.515957
40
root  1.082722221 34.48044484 -1.51372444 19.69200134 -77.12200165 -45.6269989
lowerback  1.006299973 6.235869884 1.945940018
upperback  -0.02370000072 8.272669792 -4.050280094
thorax  0.2920219898 4.129889965 -5.258309841
lowerneck  -10.53530025 7.589700222 -6.226779938
upperneck  16.96159935 9.509360313 11.38819981
head  5.951340199 5.149859905 5.371829987
lclavicle  0 -9.442270133e-015 7.951389973e-016
lhumerus  2.123389959 -20.79780006 76.18289948
lradius  2.577536349e-031 -2.413534836e-031 136.8820038
lwrist  -7.062250077e-031 1.765562519e-031 11.26939964
lhand  -1.496451383e-031 -27.76390076 20.11240005
lfingers  90 7.125020027 -90
lthumb  89.89689403 5.08795885 91.16245106
rclavicle  0 -9.442270133e-015 7.951389973e-016
rhumerus  -10.78069973 24.48180008 -89.65730286
rradius  -1.7349458e-031 3.075517373e-031 119.4280014
rwrist  1.059337512e-030 -0 -3.540659904
rhand  -7.920061211e-032 -33.2840004 9.303460121
rfingers  -90 -7.125020027 -90
rthumb  -92.93752616 -24.25625642 -97.11982154
rfemur  11.22729969 9.27200985 16.375
rtibia  -0 0 71.02349854
rfoot  -4.601885523e-032 -16.43289948 -5.783349991
rtoes  5.373923086 19.29304026 -105.8922705
lfemur  -14.83409977 -9.006380081 17.40439987
ltibia  -0 0 73.23459625
lfoot  -0 -1.197669983 -19.00749969
ltoes  -4.250644065 -19.5611806 -102.515957
41
root  1.020366657 34.38533272 -1.493908852 18.61000061 -76.56099701 -44.94000244
lowerback  1.520560026 6.251110077 1.988800049
upperback  0.06204000115 8.292779922 -4.134349823
thorax  0.1151209995 4.137889862 -5.424630165
lowerneck  -10.18420029 7.623219967 -6.384860039
upperneck  16.44239998 9.595939636 11.40610027
head  5.710599899 5.180049896 5.359930038
lclavicle  0 -9.442270133e-015 7.951389973e-016
lhumerus  2.623749971 -20.69720078 76.20619965
lradius  2.58220697e-031 -2.40853715e-031 136.9929962
lwrist  -7.062250077e-031 -1.765562519e-031 11.82590008
lhand  -1.496451383e-031 -27.76390076 20.11240005
lfingers  90 7.125020027 -90
lthumb  89.89689403 5.08795885 91.16245106
rclavicle  0 -9.442270133e-015 7.951389973e-016
rhumerus  -9.735019684 24.03989983 -88.0951004
rradius  -1.82045946e-031 3.025685277e-031 121.0339966
rwrist  7.062250077e-031 -1.765562519e-031 -3.793889999
rhand  -7.920061211e-032 -33.2840004 9.303460121
rfingers  -90 -7.125020027 -90
rthumb  -92.93752616 -24.25625642 -97.11982154
rfemur  10.78489971 8.723449707 16.55019951
rtibia  -0 0 71.60710144
rfoot  -4.614665497e-032 -16.96260071 -5.777420044
rtoes  5.373923086 19.29304026 -105.8922705
lfemur  -15.42090034 -8.42786026 17.16550064
ltibia  -0 0 72.84259796
lfoot  -0 -3.116280079 -19.18470001
ltoes  -4.250644065 -19.5611806 -102.515957
42
root  0.9554555097 34.28333313 -1.458962226 16.3809967 -75.93699646 -43.24099731
lowerback  2.276799917 6.216340065 1.962579966
upperback  0.2069469988 8.241849899 -4.297170162
thorax  -0.1410260051 4.108449936 -5.661369801
lowerneck  -9.768250465 7.682829857 -6.244589806
upperneck  15.95590019 9.679650307 11.30239964
head  5.493770123 5.214399815 5.261740208
lclavicle  0 -9.442270133e-015 7.951389973e-016
lhumerus  2.852129936 -20.96960068 76.45950317
lradius  2.584056098e-031 -2.406553161e-031 137.0370026
lwrist  -1.412450015e-030 1.765562519e-031 11.84230042
lhand  -1.496451383e-031 -27.76390076 20.11240005
lfingers  90 7.125020027 -90
lthumb  89.89689403 5.08795885 91.16245106
rclavicle  0 -9.442270133e-015 7.951389973e-016
rhumerus  -8.738059998 23.51160049 -86.70539856
rradius  -1.901272873e-031 2.975568097e-031 122.5770035
rwrist  7.062250077e-031 -1.765562519e-031 -4.011740208
rhand  -7.920061211e-032 -33.2840004 9.303460121
rfingers  -90 -7.125020027 -90
rthumb  -92.93752616 -24.25625642 -97.11982154
rfemur  10.66209984 8.051730156 16.39620018
rtibia  -0 0 71.9838028
rfoot  -4.638163147e-032 -17.88969994 -5.757420063
rtoes  5.373923086 19.29304026 -105.8922705
lfemur  -15.89669991 -8.059479713 16.52289963
ltibia  -0 0 72.53450012
lfoot  -0 -5.549510002 -18.62520027
ltoes  -4.250644065 -19.5611806 -102.515957
43
root  0.886604448 34.17466532 -1.418784472 13.76100159 -75.2440033 -41.102005
lowerback  3.011110067 6.128270149 1.825350046
upperback  0.3897599876 8.114769936 -4.429629803
thorax  -0.3746579885 4.040919781 -5.800459862
lowerneck  -9.352720261 7.768400192 -5.909619808
upperneck  15.58530045 9.796589851 10.95860004
head  5.335840225 5.255929947 5.066450119
lclavicle  0 -9.442270133e-015 7.951389973e-016
lhumerus  2.926609993 -21.1534996 76.92209625
lradius  2.584518142e-031 -2.406056942e-031 137.0480042
lwrist  -7.062250077e-031 -3.531125038e-031 12.06029987
lhand  -1.496451383e-031 -27.76390076 20.11240005
lfingers  90 7.125020027 -90
lthumb  89.89689403 5.08795885 91.16245106
rclavicle  0 -9.442270133e-015 7.951389973e-016
rhumerus  -7.799260139 23.01180077 -85.34600067
rradius  -1.981013021e-031 2.923085946e-031 124.1259995
rwrist  1.059337512e-030 -3.531125038e-031 -4.247079849
rhand  -7.920061211e-032 -33.2840004 9.303460121
rfingers  -90 -7.125020027 -90
rthumb  -92.93752616 -24.25625642 -97.11982154
rfemur  10.60319996 7.250800133 16.00849915
rtibia  -0 0 72.26560211
rfoot  -9.343003859e-032 -19.11590004 -5.833280087
rtoes  5.373923086 19.29304026 -105.8922705
lfemur  -16.40480042 -7.790299892 15.69480038
ltibia  -0 0 72.32859802
lfoot  -0 -7.662940025 -17.40579987
ltoes  -4.250644065 -19.5611806 -102.515957
44
root  0.8372378162 34.04777707 -1.378377779 11.84199524 -74.45400238 -39.5980072
lowerback  3.694509983 6.005479813 1.785099983
upperback  0.6699200273 7.95031023 -4.415530205
thorax  -0.4915409982 3.959609985 -5.825409889
lowerneck  -9.146860123 7.829110146 -5.76237011
upperneck  15.36590004 9.903189659 10.66100025
head  5.249289989 5.289619923 4.934010029
lclavicle  0 -9.442270133e-015 7.951389973e-016
lhumerus  2.936239958 -21.31690025 77.58319855
lradius  2.583299704e-031 -2.40736509e-031 137.0189972
lwrist  -1.412450015e-030 -0 12.19279957
lhand  -1.496451383e-031 -27.76390076 20.11240005
lfingers  90 7.125020027 -90
lthumb  89.89689403 5.08795885 91.16245106
rclavicle  0 -9.442270133e-015 7.951389973e-016
rhumerus  -6.762060165 22.5904007 -83.91889954
rradius  -2.055498835e-031 2.871196367e-031 125.598999
rwrist  1.059337512e-030 -1.765562519e-031 -4.214389801
rhand  -7.920061211e-032 -33.2840004 9.303460121
rfingers  -90 -7.125020027 -90
rthumb  -92.93752616 -24.25625642 -97.11982154
rfemur  10.42539978 6.342209816 15.72179985
rtibia  -0 0 72.62239838
rfoot  -4.706177807e-032 -20.29879951 -6.171770096
rtoes  5.373923086 19.29304026 -105.8922705
lfemur  -17.06080055 -7.548449993 15.00759983
ltibia  -0 0 72.31060028
lfoot  -0 -9.699810028 -15.62790012
ltoes  -4.250644065 -19.5611806 -102.515957
45
root  0.8077310765 33.90000111 -1.329373375 10.93400574 -73.59200287 -39.05299377
lowerback  4.573679924 5.753709793 1.57712996
upperback  0.7464129925 7.609399796 -4.070640087
thorax  -1.015249968 3.778569937 -5.44712019
lowerneck  -8.676890373 8.012040138 -5.836120129
upperneck  15.25329971 10.16959953 10.52429962
head  5.11507988 5.395750046 4.881919861
lclavicle  0 -9.442270133e-015 7.951389973e-016
lhumerus  2.336960077 -21.32480049 78.51029968
lradius  2.582501368e-031 -2.408221485e-031 137
lwrist  -7.062250077e-031 -1.765562519e-031 11.88029957
lhand  -1.496451383e-031 -27.76390076 20.11240005
lfingers  90 7.125020027 -90
lthumb  89.89689403 5.08795885 91.16245106
rclavicle  0 -9.442270133e-015 7.951389973e-016
rhumerus  -6.080930233 22.67690086 -82.54589844
rradius  -2.124690159e-031 2.820378656e-031 126.9919968
rwrist  7.062250077e-031 -1.765562519e-031 -4.151070118
rhand  -7.920061211e-032 -33.2840004 9.303460121
rfingers  -90 -7.125020027 -90
rthumb  -92.93752616 -24.25625642 -97.11982154
rfemur  10.09000015 5.439829826 15.6480999
rtibia  -0 0 73.14730072
rfoot  -9.467350235e-032 -21.18029976 -6.617949963
rtoes  5.373923086 19.29304026 -105.8922705
lfemur  -17.84000015 -7.243169785 14.59910011
ltibia  -0 0 72.53369904
lfoot  -0 -11.71440029 -13.48200035
ltoes  -4.250644065 -19.5611806 -102.515957
